<svg width="17" height="20" viewBox="0 0 17 20" fill="none" xmlns="http://www.w3.org/2000/svg">
<path d="M3.70457 12.8846L8.49562 16.4779L13.2586 12.8901C13.5816 12.47 14.2344 11.6161 14.2615 11.5619C14.2954 11.4942 14.9731 10.6539 15.0205 10.5116C15.0679 10.3693 15.6304 9.41377 15.6304 9.346C15.6304 9.27824 15.6439 8.15333 15.6304 8.09234C15.6196 8.04355 14.9934 6.97421 14.6817 6.44564L13.0485 5.51725L10.7672 5.32617L9.28036 6.89565L8.24781 7.763C8.05506 7.45323 7.63653 6.78827 7.50437 6.60654C7.3722 6.42481 6.26531 5.84267 5.72838 5.57432L2.89918 5.96675L1.41231 7.63917L1.66012 10.3859L3.70457 12.8846Z" fill="#6B707E"/>
<path d="M14.9056 6.17881C14.1658 5.41863 13.1394 5 12.0156 5C10.4351 5 9.43448 5.85478 8.87339 6.57187C8.72781 6.75795 8.60397 6.94453 8.5 7.1201C8.39603 6.94453 8.27222 6.75795 8.12661 6.57187C7.56552 5.85478 6.56488 5 4.98438 5C3.86061 5 2.83425 5.41866 2.09438 6.17883C1.38868 6.90399 1 7.87518 1 8.91349C1 10.0437 1.48729 11.0949 2.53355 12.2217C3.46861 13.2288 4.81384 14.2668 6.37158 15.4688C6.95204 15.9167 7.5523 16.38 8.19136 16.8863L8.21055 16.9015C8.2934 16.9672 8.3967 17 8.5 17C8.6033 17 8.7066 16.9672 8.78945 16.9015L8.80864 16.8863C9.4477 16.38 10.048 15.9168 10.6285 15.4688C12.1862 14.2668 13.5314 13.2288 14.4665 12.2217C15.5127 11.0949 16 10.0437 16 8.91349C16 7.87518 15.6113 6.90399 14.9056 6.17881ZM10.0584 14.8631C9.558 15.2492 9.04302 15.6465 8.5 16.074C7.95701 15.6466 7.442 15.2492 6.94152 14.863C3.89292 12.5106 1.87891 10.9564 1.87891 8.91349C1.87891 8.06906 2.1896 7.28474 2.75377 6.70505C3.32441 6.11877 4.11657 5.79588 4.98438 5.79588C6.18933 5.79588 6.96824 6.46809 7.40945 7.03199C7.80522 7.53775 8.01174 8.04759 8.08217 8.2433C8.14108 8.40712 8.30975 8.51799 8.5 8.51799C8.69025 8.51799 8.85892 8.40712 8.91783 8.2433C8.98826 8.04759 9.19478 7.53775 9.59055 7.03197C10.0318 6.46809 10.8107 5.79588 12.0156 5.79588C12.8834 5.79588 13.6756 6.11877 14.2462 6.70505C14.8104 7.28474 15.1211 8.06906 15.1211 8.91349C15.1211 10.9564 13.1071 12.5106 10.0584 14.8631Z" fill="#6B707E"/>
</svg>
