<svg width="106" height="42" viewBox="0 0 106 42" fill="none" xmlns="http://www.w3.org/2000/svg">
<path d="M1.36243 38.8545V26.6961H3.20774L7.51921 34.6465L11.8134 26.6961H13.6243V38.8545H11.6237V30.6627L8.14006 37.0092H6.84662L3.36295 30.6972V38.8545H1.36243ZM20.2323 39.027C19.3585 39.027 18.5997 38.8487 17.9558 38.4923C17.312 38.1359 16.8118 37.63 16.4554 36.9747C16.099 36.3078 15.9208 35.526 15.9208 34.6292C15.9208 33.7325 16.099 32.9564 16.4554 32.3011C16.8118 31.6457 17.312 31.1398 17.9558 30.7834C18.5997 30.427 19.3585 30.2488 20.2323 30.2488C21.1061 30.2488 21.8649 30.427 22.5087 30.7834C23.1526 31.1398 23.6527 31.6457 24.0091 32.3011C24.3655 32.9564 24.5437 33.7325 24.5437 34.6292C24.5437 35.526 24.3655 36.3078 24.0091 36.9747C23.6527 37.63 23.1526 38.1359 22.5087 38.4923C21.8649 38.8487 21.1061 39.027 20.2323 39.027ZM20.2323 37.3886C20.8761 37.3886 21.3935 37.1586 21.7844 36.6988C22.1753 36.2274 22.3708 35.5375 22.3708 34.6292C22.3708 33.7095 22.1753 33.0254 21.7844 32.577C21.3935 32.1171 20.8761 31.8871 20.2323 31.8871C19.5884 31.8871 19.071 32.1171 18.6801 32.577C18.2892 33.0254 18.0938 33.7095 18.0938 34.6292C18.0938 35.5375 18.2892 36.2274 18.6801 36.6988C19.071 37.1586 19.5884 37.3886 20.2323 37.3886ZM26.714 38.8545V30.4212H28.6628V36.0434L32.8881 30.4212H34.6816V38.8545H32.7328V33.2323L28.5076 38.8545H26.714ZM30.6806 29.352C29.8413 29.352 29.1514 29.1393 28.6111 28.7139C28.0707 28.277 27.7143 27.6906 27.5418 26.9548L28.6456 26.5754C28.841 27.1273 29.0997 27.5297 29.4216 27.7826C29.7551 28.0356 30.1805 28.162 30.6978 28.162C31.2267 28.162 31.6521 28.0356 31.974 27.7826C32.296 27.5182 32.5661 27.1215 32.7846 26.5927L33.8366 26.9548C33.5951 27.7481 33.1985 28.346 32.6466 28.7484C32.1062 29.1508 31.4509 29.352 30.6806 29.352ZM41.1324 41.7001V37.0954H42.3396C43.4204 35.7387 43.9607 33.3301 43.9607 29.8694V26.6961H52.5664V37.0954H54.291V41.7001H52.325V38.8545H43.0984V41.7001H41.1324ZM44.5816 37.0954H50.3417V28.4552H46.013V30.0763C46.013 31.7319 45.8923 33.1289 45.6508 34.2671C45.4209 35.4053 45.0645 36.3481 44.5816 37.0954ZM59.9275 39.027C59.0537 39.027 58.2949 38.8487 57.651 38.4923C57.0072 38.1359 56.507 37.63 56.1506 36.9747C55.7942 36.3078 55.616 35.526 55.616 34.6292C55.616 33.7325 55.7942 32.9564 56.1506 32.3011C56.507 31.6457 57.0072 31.1398 57.651 30.7834C58.2949 30.427 59.0537 30.2488 59.9275 30.2488C60.8013 30.2488 61.5601 30.427 62.2039 30.7834C62.8478 31.1398 63.3479 31.6457 63.7043 32.3011C64.0607 32.9564 64.2389 33.7325 64.2389 34.6292C64.2389 35.526 64.0607 36.3078 63.7043 36.9747C63.3479 37.63 62.8478 38.1359 62.2039 38.4923C61.5601 38.8487 60.8013 39.027 59.9275 39.027ZM59.9275 37.3886C60.5713 37.3886 61.0887 37.1586 61.4796 36.6988C61.8705 36.2274 62.066 35.5375 62.066 34.6292C62.066 33.7095 61.8705 33.0254 61.4796 32.577C61.0887 32.1171 60.5713 31.8871 59.9275 31.8871C59.2836 31.8871 58.7662 32.1171 58.3753 32.577C57.9844 33.0254 57.789 33.7095 57.789 34.6292C57.789 35.5375 57.9844 36.2274 58.3753 36.6988C58.7662 37.1586 59.2836 37.3886 59.9275 37.3886ZM66.4092 38.8545V30.4212H68.1856L71.1001 35.4053L74.0147 30.4212H75.7738V38.8545H73.8767V33.6117L71.6003 37.4748H70.5827L68.3063 33.6117V38.8545H66.4092Z" fill="#343A40"/>
<path d="M86.9164 39.027C86.0886 39.027 85.2952 38.9062 84.5364 38.6648C83.7891 38.4118 83.1683 38.0727 82.6739 37.6473L83.3982 35.9572C84.4329 36.762 85.5827 37.1644 86.8474 37.1644C88.3995 37.1644 89.1756 36.555 89.1756 35.3363C89.1756 34.7615 88.9801 34.3361 88.5892 34.0601C88.2098 33.7727 87.6522 33.629 86.9164 33.629H84.9676V31.8009H86.7094C87.3533 31.8009 87.8649 31.6457 88.2443 31.3353C88.6237 31.0134 88.8134 30.5707 88.8134 30.0073C88.8134 29.4785 88.6352 29.0761 88.2788 28.8001C87.9339 28.5242 87.428 28.3862 86.7611 28.3862C85.5654 28.3862 84.5134 28.8001 83.6051 29.6279L82.8808 27.9723C83.3637 27.5124 83.9673 27.156 84.6916 26.9031C85.416 26.6501 86.169 26.5237 86.9509 26.5237C88.2155 26.5237 89.1986 26.8111 89.8999 27.386C90.6012 27.9493 90.9519 28.7369 90.9519 29.7487C90.9519 30.404 90.7852 30.9789 90.4518 31.4732C90.1183 31.9676 89.6642 32.324 89.0893 32.5425C89.7907 32.7379 90.3368 33.1001 90.7277 33.629C91.1186 34.1464 91.3141 34.7787 91.3141 35.526C91.3141 36.6068 90.9232 37.4633 90.1413 38.0957C89.3595 38.7165 88.2845 39.027 86.9164 39.027ZM93.8252 38.8545V26.6961H98.3437C100.379 26.6961 101.948 27.2193 103.052 28.2655C104.167 29.3118 104.725 30.8122 104.725 32.7667C104.725 34.7097 104.167 36.2101 103.052 37.2679C101.948 38.3256 100.379 38.8545 98.3437 38.8545H93.8252ZM96.0327 37.0264H98.2057C101.011 37.0264 102.414 35.6065 102.414 32.7667C102.414 29.9384 101.011 28.5242 98.2057 28.5242H96.0327V37.0264Z" fill="#A07855"/>
<path d="M35.2375 0L15.2011 3.92018L12.4262 7.27874V10.8023L11.0538 12.6823L10.9542 5.66248L7.57849 6.31584L7.68738 13.033L0 22.3773L23.5859 21.8876L35.2375 0Z" fill="#A07855"/>
<path d="M33.8828 2.54657L35.2385 0L45.9451 19.8283H42.738L33.8828 2.54657Z" fill="#D4B996"/>
<path d="M46.0973 16.9728L42.6974 10.1446L50.4685 8.57324L46.0973 16.9728Z" fill="#D4B996"/>
<path d="M50.4682 8.57324L49.1895 11.0305L56.79 22.3887H59.4177L50.4682 8.57324Z" fill="#D4B996"/>
<path d="M50.4682 8.57324L49.1895 11.0305L56.79 22.3887H59.4177L50.4682 8.57324Z" fill="#A07855"/>
<path fill-rule="evenodd" clip-rule="evenodd" d="M31.0566 12.7725L33.5781 12.8872V15.5919H31.0566V12.7725ZM31.0566 16.4482V19.2665H33.5781V16.4482H31.0566ZM34.412 16.4482V19.2665H36.932V16.4482H34.412ZM36.932 15.5919V13.0398L34.412 12.9251V15.5919H36.932Z" fill="#D4B996"/>
<path d="M96.046 23.886L56.8915 22.3704L55.7969 20.7705L96.046 23.886Z" fill="#D9D9D9"/>
<path d="M96.046 23.886L56.8915 22.3704L55.7969 20.7705L96.046 23.886Z" fill="#A07855"/>
</svg>
